<svg version="1.1" id="Layer_1" xmlns="http://www.w3.org/2000/svg" xmlns:xlink="http://www.w3.org/1999/xlink" x="0px" y="0px"
	 width="100%" viewBox="0 0 3264 3264" enable-background="new 0 0 3264 3264" xml:space="preserve">
<path fill="#3CB593" opacity="1.000000" stroke="none" 
	d="
M2152.000000,3266.000000 
	C1434.666870,3266.000000 718.333740,3266.000000 2.000481,3266.000000 
	C2.000320,2178.000488 2.000320,1090.001099 2.000160,2.001210 
	C1089.999146,2.000807 2177.998291,2.000807 3265.998047,2.000403 
	C3265.998535,1089.998779 3265.998535,2177.997559 3265.999268,3265.998047 
	C2895.000000,3266.000000 2524.000000,3266.000000 2152.000000,3266.000000 
M1530.999634,2650.921875 
	C1558.998657,2650.922363 1586.997681,2650.922852 1614.996704,2650.923096 
	C1665.662109,2650.923828 1716.327515,2650.877930 1766.992798,2650.948486 
	C1785.526367,2650.974365 1803.452026,2648.580566 1820.270874,2640.055664 
	C1848.331787,2625.833008 1867.149048,2603.682373 1874.529053,2573.293701 
	C1882.064453,2542.265381 1887.642944,2510.759521 1893.962158,2479.439209 
	C1899.228271,2453.338135 1904.406982,2427.218750 1909.430542,2401.070312 
	C1910.425659,2395.890625 1913.054688,2393.094727 1917.952026,2391.175049 
	C1933.115479,2385.231689 1948.163208,2378.978516 1963.132935,2372.558838 
	C2010.363770,2352.303223 2054.925293,2327.158691 2097.376709,2298.286621 
	C2111.404297,2288.746094 2124.800049,2278.279785 2138.561768,2268.343506 
	C2143.136963,2265.040283 2147.475586,2262.089600 2154.073242,2264.379883 
	C2182.034668,2274.085449 2210.175537,2283.273926 2238.256348,2292.635254 
	C2266.960205,2302.203857 2295.504639,2312.294922 2324.425781,2321.155518 
	C2352.161133,2329.652832 2379.035156,2325.669189 2404.655273,2312.376709 
	C2425.281494,2301.675049 2438.756348,2284.266846 2450.267578,2264.745117 
	C2487.257812,2202.014893 2524.499756,2139.433105 2561.589844,2076.761475 
	C2576.322510,2051.867920 2591.600342,2027.262451 2605.368164,2001.842163 
	C2618.337646,1977.896851 2619.861084,1952.111328 2611.535400,1926.229370 
	C2605.502930,1907.476318 2594.448242,1891.801392 2579.253906,1879.048096 
	C2553.230713,1857.205688 2527.366455,1835.173828 2501.421143,1813.238281 
	C2484.123047,1798.613159 2466.798584,1784.019165 2449.489746,1769.406738 
	C2445.320801,1765.887451 2442.232666,1762.393311 2443.047852,1755.911133 
	C2446.330811,1729.816406 2449.244873,1703.668945 2451.846191,1677.496338 
	C2457.461670,1621.005615 2451.817871,1565.014771 2443.433838,1509.220093 
	C2442.455566,1502.708252 2443.915283,1498.479370 2448.754883,1494.428223 
	C2473.786377,1473.473267 2498.713135,1452.392578 2523.614502,1431.282593 
	C2543.938965,1414.052490 2564.385742,1396.957275 2584.380371,1379.350342 
	C2598.457031,1366.954712 2607.636475,1351.097534 2612.633545,1333.113647 
	C2620.661133,1304.223022 2615.594727,1277.218872 2600.336670,1251.603149 
	C2559.838623,1183.612305 2519.633789,1115.446655 2479.232666,1047.397827 
	C2466.502930,1025.956665 2454.154785,1004.250427 2440.515869,983.395508 
	C2416.107666,946.074646 2368.260986,928.983398 2323.474365,942.030518 
	C2305.920410,947.144226 2288.597656,953.068726 2271.238525,958.831543 
	C2233.048340,971.509705 2194.778564,983.970764 2156.838379,997.362000 
	C2148.956787,1000.143921 2143.839600,998.695435 2137.756592,994.247559 
	C2119.495850,980.895020 2101.335205,967.345642 2082.433838,954.942261 
	C2047.062012,931.730286 2010.114746,911.242126 1971.276611,894.334045 
	C1953.591431,886.634705 1935.774780,879.229797 1917.912842,871.948975 
	C1913.929443,870.325256 1910.787842,868.492065 1909.849976,864.025513 
	C1908.276245,856.530701 1906.531494,849.070007 1905.064453,841.554749 
	C1901.174316,821.628479 1897.551880,801.648865 1893.533081,781.748962 
	C1887.735596,753.041138 1881.522095,724.416992 1875.784912,695.697388 
	C1870.519165,669.336731 1857.151123,648.292114 1835.511841,632.448608 
	C1815.974976,618.144348 1793.950562,612.191284 1769.891846,612.328857 
	C1731.560913,612.548096 1693.227539,612.382019 1654.895264,612.380371 
	C1590.230225,612.377502 1525.565308,612.422241 1460.900269,612.343628 
	C1442.688232,612.321533 1425.099121,614.786865 1408.616455,623.144592 
	C1380.932861,637.181702 1362.309204,659.034851 1354.549927,688.934570 
	C1348.537720,712.102112 1344.594727,735.811340 1339.874512,759.308350 
	C1332.991455,793.570801 1326.172485,827.846375 1319.495239,862.149292 
	C1318.489258,867.316833 1315.890869,870.171265 1311.011353,872.103821 
	C1296.482300,877.857971 1282.117065,884.027588 1267.711914,890.091980 
	C1230.532837,905.744080 1194.811035,924.313232 1160.894775,946.062683 
	C1137.108521,961.316040 1114.291260,978.093628 1091.237549,994.466736 
	C1085.141724,998.796021 1080.046021,1000.575134 1072.121216,997.667358 
	C1046.844116,988.392700 1021.075317,980.463135 995.527588,971.920837 
	C973.763733,964.643860 952.085083,957.109924 930.285950,949.941284 
	C918.599060,946.098083 906.958740,941.406921 894.916138,939.476013 
	C847.688599,931.903503 805.768799,952.229980 782.943298,991.763855 
	C764.651917,1023.444580 745.733948,1054.764038 727.035034,1086.208740 
	C693.889771,1141.946777 660.616150,1197.608887 627.574341,1253.408203 
	C616.269897,1272.498657 610.361572,1293.184326 612.911926,1315.497559 
	C616.069946,1343.127563 628.291382,1366.129395 649.736084,1384.126343 
	C677.801392,1407.679077 705.774292,1431.342163 733.766113,1454.982422 
	C749.293335,1468.095581 764.763977,1481.275757 780.291565,1494.388428 
	C784.330566,1497.799316 786.579590,1501.479248 785.864380,1507.318970 
	C782.707703,1533.094604 779.882996,1558.912964 777.168396,1584.740112 
	C771.229187,1641.245361 777.319092,1697.214600 785.333435,1753.036255 
	C786.359253,1760.181641 785.135986,1765.046265 779.591187,1769.610718 
	C763.904541,1782.523804 748.500244,1795.779785 732.979858,1808.895020 
	C704.227661,1833.191772 675.193481,1857.164062 646.789062,1881.860718 
	C612.540405,1911.638672 601.354675,1962.369629 624.902710,2004.524292 
	C635.278564,2023.098755 646.231018,2041.354492 657.090088,2059.655029 
	C699.174744,2130.581055 741.379761,2201.435791 783.428040,2272.383301 
	C799.630127,2299.720947 823.335144,2316.980957 854.143066,2323.408691 
	C875.696838,2327.905273 897.159485,2325.271240 918.014526,2317.573975 
	C934.231384,2311.588379 950.739197,2306.386230 967.149109,2300.930420 
	C988.607849,2293.796143 1010.107910,2286.786133 1031.570435,2279.663086 
	C1046.719360,2274.635498 1061.776733,2269.319336 1077.020020,2264.601074 
	C1079.791016,2263.743164 1083.484863,2264.573730 1086.346802,2265.677734 
	C1089.031616,2266.713135 1091.192383,2269.125244 1093.559692,2270.962646 
	C1143.475098,2309.699951 1197.572021,2341.509766 1254.968140,2367.719482 
	C1273.406372,2376.139160 1292.334229,2383.495361 1311.115479,2391.148438 
	C1315.098633,2392.771484 1318.143555,2394.808838 1319.078857,2399.234375 
	C1320.593506,2406.400391 1322.285400,2413.531250 1323.682617,2420.719727 
	C1327.619995,2440.974854 1331.273071,2461.286621 1335.356445,2481.511719 
	C1341.152588,2510.220947 1347.490112,2538.822266 1353.115112,2567.563965 
	C1358.074219,2592.903564 1370.767822,2613.385742 1390.941650,2629.073730 
	C1410.554565,2644.326172 1433.136841,2651.142822 1458.002197,2650.912354 
	C1481.665894,2650.692871 1505.333618,2650.900391 1530.999634,2650.921875 
z"/>
<path fill="#FEFFFF" opacity="1.000000" stroke="none" 
	d="
M1529.999512,2650.920898 
	C1505.333618,2650.900391 1481.665894,2650.692871 1458.002197,2650.912354 
	C1433.136841,2651.142822 1410.554565,2644.326172 1390.941650,2629.073730 
	C1370.767822,2613.385742 1358.074219,2592.903564 1353.115112,2567.563965 
	C1347.490112,2538.822266 1341.152588,2510.220947 1335.356445,2481.511719 
	C1331.273071,2461.286621 1327.619995,2440.974854 1323.682617,2420.719727 
	C1322.285400,2413.531250 1320.593506,2406.400391 1319.078857,2399.234375 
	C1318.143555,2394.808838 1315.098633,2392.771484 1311.115479,2391.148438 
	C1292.334229,2383.495361 1273.406372,2376.139160 1254.968140,2367.719482 
	C1197.572021,2341.509766 1143.475098,2309.699951 1093.559692,2270.962646 
	C1091.192383,2269.125244 1089.031616,2266.713135 1086.346802,2265.677734 
	C1083.484863,2264.573730 1079.791016,2263.743164 1077.020020,2264.601074 
	C1061.776733,2269.319336 1046.719360,2274.635498 1031.570435,2279.663086 
	C1010.107910,2286.786133 988.607849,2293.796143 967.149109,2300.930420 
	C950.739197,2306.386230 934.231384,2311.588379 918.014526,2317.573975 
	C897.159485,2325.271240 875.696838,2327.905273 854.143066,2323.408691 
	C823.335144,2316.980957 799.630127,2299.720947 783.428040,2272.383301 
	C741.379761,2201.435791 699.174744,2130.581055 657.090088,2059.655029 
	C646.231018,2041.354492 635.278564,2023.098755 624.902710,2004.524292 
	C601.354675,1962.369629 612.540405,1911.638672 646.789062,1881.860718 
	C675.193481,1857.164062 704.227661,1833.191772 732.979858,1808.895020 
	C748.500244,1795.779785 763.904541,1782.523804 779.591187,1769.610718 
	C785.135986,1765.046265 786.359253,1760.181641 785.333435,1753.036255 
	C777.319092,1697.214600 771.229187,1641.245361 777.168396,1584.740112 
	C779.882996,1558.912964 782.707703,1533.094604 785.864380,1507.318970 
	C786.579590,1501.479248 784.330566,1497.799316 780.291565,1494.388428 
	C764.763977,1481.275757 749.293335,1468.095581 733.766113,1454.982422 
	C705.774292,1431.342163 677.801392,1407.679077 649.736084,1384.126343 
	C628.291382,1366.129395 616.069946,1343.127563 612.911926,1315.497559 
	C610.361572,1293.184326 616.269897,1272.498657 627.574341,1253.408203 
	C660.616150,1197.608887 693.889771,1141.946777 727.035034,1086.208740 
	C745.733948,1054.764038 764.651917,1023.444580 782.943298,991.763855 
	C805.768799,952.229980 847.688599,931.903503 894.916138,939.476013 
	C906.958740,941.406921 918.599060,946.098083 930.285950,949.941284 
	C952.085083,957.109924 973.763733,964.643860 995.527588,971.920837 
	C1021.075317,980.463135 1046.844116,988.392700 1072.121216,997.667358 
	C1080.046021,1000.575134 1085.141724,998.796021 1091.237549,994.466736 
	C1114.291260,978.093628 1137.108521,961.316040 1160.894775,946.062683 
	C1194.811035,924.313232 1230.532837,905.744080 1267.711914,890.091980 
	C1282.117065,884.027588 1296.482300,877.857971 1311.011353,872.103821 
	C1315.890869,870.171265 1318.489258,867.316833 1319.495239,862.149292 
	C1326.172485,827.846375 1332.991455,793.570801 1339.874512,759.308350 
	C1344.594727,735.811340 1348.537720,712.102112 1354.549927,688.934570 
	C1362.309204,659.034851 1380.932861,637.181702 1408.616455,623.144592 
	C1425.099121,614.786865 1442.688232,612.321533 1460.900269,612.343628 
	C1525.565308,612.422241 1590.230225,612.377502 1654.895264,612.380371 
	C1693.227539,612.382019 1731.560913,612.548096 1769.891846,612.328857 
	C1793.950562,612.191284 1815.974976,618.144348 1835.511841,632.448608 
	C1857.151123,648.292114 1870.519165,669.336731 1875.784912,695.697388 
	C1881.522095,724.416992 1887.735596,753.041138 1893.533081,781.748962 
	C1897.551880,801.648865 1901.174316,821.628479 1905.064453,841.554749 
	C1906.531494,849.070007 1908.276245,856.530701 1909.849976,864.025513 
	C1910.787842,868.492065 1913.929443,870.325256 1917.912842,871.948975 
	C1935.774780,879.229797 1953.591431,886.634705 1971.276611,894.334045 
	C2010.114746,911.242126 2047.062012,931.730286 2082.433838,954.942261 
	C2101.335205,967.345642 2119.495850,980.895020 2137.756592,994.247559 
	C2143.839600,998.695435 2148.956787,1000.143921 2156.838379,997.362000 
	C2194.778564,983.970764 2233.048340,971.509705 2271.238525,958.831543 
	C2288.597656,953.068726 2305.920410,947.144226 2323.474365,942.030518 
	C2368.260986,928.983398 2416.107666,946.074646 2440.515869,983.395508 
	C2454.154785,1004.250427 2466.502930,1025.956665 2479.232666,1047.397827 
	C2519.633789,1115.446655 2559.838623,1183.612305 2600.336670,1251.603149 
	C2615.594727,1277.218872 2620.661133,1304.223022 2612.633545,1333.113647 
	C2607.636475,1351.097534 2598.457031,1366.954712 2584.380371,1379.350342 
	C2564.385742,1396.957275 2543.938965,1414.052490 2523.614502,1431.282593 
	C2498.713135,1452.392578 2473.786377,1473.473267 2448.754883,1494.428223 
	C2443.915283,1498.479370 2442.455566,1502.708252 2443.433838,1509.220093 
	C2451.817871,1565.014771 2457.461670,1621.005615 2451.846191,1677.496338 
	C2449.244873,1703.668945 2446.330811,1729.816406 2443.047852,1755.911133 
	C2442.232666,1762.393311 2445.320801,1765.887451 2449.489746,1769.406738 
	C2466.798584,1784.019165 2484.123047,1798.613159 2501.421143,1813.238281 
	C2527.366455,1835.173828 2553.230713,1857.205688 2579.253906,1879.048096 
	C2594.448242,1891.801392 2605.502930,1907.476318 2611.535400,1926.229370 
	C2619.861084,1952.111328 2618.337646,1977.896851 2605.368164,2001.842163 
	C2591.600342,2027.262451 2576.322510,2051.867920 2561.589844,2076.761475 
	C2524.499756,2139.433105 2487.257812,2202.014893 2450.267578,2264.745117 
	C2438.756348,2284.266846 2425.281494,2301.675049 2404.655273,2312.376709 
	C2379.035156,2325.669189 2352.161133,2329.652832 2324.425781,2321.155518 
	C2295.504639,2312.294922 2266.960205,2302.203857 2238.256348,2292.635254 
	C2210.175537,2283.273926 2182.034668,2274.085449 2154.073242,2264.379883 
	C2147.475586,2262.089600 2143.136963,2265.040283 2138.561768,2268.343506 
	C2124.800049,2278.279785 2111.404297,2288.746094 2097.376709,2298.286621 
	C2054.925293,2327.158691 2010.363770,2352.303223 1963.132935,2372.558838 
	C1948.163208,2378.978516 1933.115479,2385.231689 1917.952026,2391.175049 
	C1913.054688,2393.094727 1910.425659,2395.890625 1909.430542,2401.070312 
	C1904.406982,2427.218750 1899.228271,2453.338135 1893.962158,2479.439209 
	C1887.642944,2510.759521 1882.064453,2542.265381 1874.529053,2573.293701 
	C1867.149048,2603.682373 1848.331787,2625.833008 1820.270874,2640.055664 
	C1803.452026,2648.580566 1785.526367,2650.974365 1766.992798,2650.948486 
	C1716.327515,2650.877930 1665.662109,2650.923828 1614.996704,2650.923096 
	C1586.997681,2650.922852 1558.998657,2650.922363 1529.999512,2650.920898 
M1893.835571,1327.217407 
	C1818.938721,1263.640381 1732.639038,1228.878540 1634.304688,1224.607788 
	C1600.570190,1223.142822 1566.939697,1224.617432 1533.796021,1231.172363 
	C1508.350220,1236.204956 1483.472900,1243.384033 1459.149658,1252.809814 
	C1424.774292,1266.130859 1392.784424,1283.521362 1363.025146,1305.093018 
	C1320.765259,1335.725342 1285.559937,1373.114258 1257.369263,1417.033936 
	C1230.479004,1458.927490 1212.395752,1504.488647 1202.261719,1553.132690 
	C1197.500122,1575.989136 1195.609497,1599.228882 1195.103760,1622.619507 
	C1194.306641,1659.485474 1197.827271,1695.870483 1207.213989,1731.490601 
	C1214.937988,1760.800537 1225.868896,1788.949097 1240.006470,1815.907715 
	C1270.098511,1873.290039 1311.668091,1920.562500 1363.826538,1958.718140 
	C1365.502686,1959.944336 1367.708740,1960.446411 1371.125732,1961.910522 
	C1371.308594,1956.699951 1371.559937,1952.836182 1371.562134,1948.972046 
	C1371.590576,1899.982910 1371.677979,1850.993530 1371.470825,1802.005249 
	C1371.443359,1795.517456 1373.255615,1790.737793 1377.961792,1786.172974 
	C1397.096069,1767.613281 1415.931274,1748.744019 1434.812256,1729.924316 
	C1492.874634,1672.051147 1550.891479,1614.132568 1608.972412,1556.278076 
	C1615.749023,1549.527710 1622.815430,1543.067993 1630.251709,1535.993896 
	C1637.404053,1542.804077 1643.989868,1548.837280 1650.314575,1555.133057 
	C1727.308594,1631.775757 1804.220459,1708.501099 1881.324585,1785.032837 
	C1886.689941,1790.358276 1889.162842,1795.707397 1889.100586,1803.377075 
	C1888.770508,1844.031982 1888.932251,1884.691040 1888.994385,1925.348633 
	C1889.000122,1929.145630 1889.501099,1932.941772 1889.871582,1938.132690 
	C1892.950195,1936.030396 1894.655640,1935.105591 1896.078857,1933.858521 
	C1926.336426,1907.343994 1952.265381,1877.103638 1973.484497,1842.925659 
	C1993.591309,1810.539551 2009.023438,1776.097778 2019.257202,1739.258911 
	C2025.158447,1718.015991 2030.068970,1696.549561 2031.871338,1674.696045 
	C2034.887207,1638.126953 2034.800415,1601.580933 2028.544800,1565.103638 
	C2023.107422,1533.399048 2014.264771,1502.798706 2001.505005,1473.468384 
	C1976.974609,1417.080933 1941.223999,1368.675781 1893.835571,1327.217407 
M1848.255737,1940.744995 
	C1775.517334,1869.048462 1703.695312,1796.420532 1630.088989,1724.063232 
	C1608.567871,1745.465454 1588.070557,1765.862671 1567.558472,1786.244995 
	C1546.999268,1806.674194 1526.396606,1827.059814 1505.865845,1847.517578 
	C1485.333374,1867.977051 1464.783081,1888.419556 1444.393433,1909.020874 
	C1424.149292,1929.474976 1402.760010,1948.832520 1382.459839,1971.441284 
	C1458.587402,2019.430420 1539.818359,2040.756958 1628.140015,2039.092651 
	C1724.558350,2037.275391 1822.204102,1994.102173 1864.502197,1957.205688 
	C1859.403076,1952.034546 1854.330200,1946.889893 1848.255737,1940.744995 
z"/>
<path fill="#3FB694" opacity="1.000000" stroke="none" 
	d="
M1894.356934,1327.694336 
	C1941.223999,1368.675781 1976.974609,1417.080933 2001.505005,1473.468384 
	C2014.264771,1502.798706 2023.107422,1533.399048 2028.544800,1565.103638 
	C2034.800415,1601.580933 2034.887207,1638.126953 2031.871338,1674.696045 
	C2030.068970,1696.549561 2025.158447,1718.015991 2019.257202,1739.258911 
	C2009.023438,1776.097778 1993.591309,1810.539551 1973.484497,1842.925659 
	C1952.265381,1877.103638 1926.336426,1907.343994 1896.078857,1933.858521 
	C1894.655640,1935.105591 1892.950195,1936.030396 1889.871582,1938.132690 
	C1889.501099,1932.941772 1889.000122,1929.145630 1888.994385,1925.348633 
	C1888.932251,1884.691040 1888.770508,1844.031982 1889.100586,1803.377075 
	C1889.162842,1795.707397 1886.689941,1790.358276 1881.324585,1785.032837 
	C1804.220459,1708.501099 1727.308594,1631.775757 1650.314575,1555.133057 
	C1643.989868,1548.837280 1637.404053,1542.804077 1630.251709,1535.993896 
	C1622.815430,1543.067993 1615.749023,1549.527710 1608.972412,1556.278076 
	C1550.891479,1614.132568 1492.874634,1672.051147 1434.812256,1729.924316 
	C1415.931274,1748.744019 1397.096069,1767.613281 1377.961792,1786.172974 
	C1373.255615,1790.737793 1371.443359,1795.517456 1371.470825,1802.005249 
	C1371.677979,1850.993530 1371.590576,1899.982910 1371.562134,1948.972046 
	C1371.559937,1952.836182 1371.308594,1956.699951 1371.125732,1961.910522 
	C1367.708740,1960.446411 1365.502686,1959.944336 1363.826538,1958.718140 
	C1311.668091,1920.562500 1270.098511,1873.290039 1240.006470,1815.907715 
	C1225.868896,1788.949097 1214.937988,1760.800537 1207.213989,1731.490601 
	C1197.827271,1695.870483 1194.306641,1659.485474 1195.103760,1622.619507 
	C1195.609497,1599.228882 1197.500122,1575.989136 1202.261719,1553.132690 
	C1212.395752,1504.488647 1230.479004,1458.927490 1257.369263,1417.033936 
	C1285.559937,1373.114258 1320.765259,1335.725342 1363.025146,1305.093018 
	C1392.784424,1283.521362 1424.774292,1266.130859 1459.149658,1252.809814 
	C1483.472900,1243.384033 1508.350220,1236.204956 1533.796021,1231.172363 
	C1566.939697,1224.617432 1600.570190,1223.142822 1634.304688,1224.607788 
	C1732.639038,1228.878540 1818.938721,1263.640381 1894.356934,1327.694336 
M1493.105713,1556.105713 
	C1538.598145,1510.835571 1584.090698,1465.565430 1630.024536,1419.856079 
	C1633.347046,1422.935181 1635.816772,1425.086060 1638.133179,1427.391357 
	C1675.204712,1464.287109 1712.257324,1501.201904 1749.313110,1538.113647 
	C1792.505737,1581.137939 1835.690308,1624.170288 1878.908203,1667.169067 
	C1881.342285,1669.590820 1884.048584,1671.739014 1888.215210,1675.414551 
	C1888.557861,1669.817139 1888.921997,1666.621582 1888.924072,1663.425781 
	C1888.958984,1608.455322 1888.823486,1553.484253 1889.099609,1498.515137 
	C1889.136475,1491.163940 1886.666870,1486.101929 1881.542603,1481.092163 
	C1856.770630,1456.872925 1832.283325,1432.361938 1807.745117,1407.904053 
	C1751.352173,1351.695190 1694.991821,1295.453857 1638.601562,1239.242432 
	C1636.072388,1236.721313 1633.378174,1234.365967 1630.170654,1231.384888 
	C1626.953613,1234.404053 1624.269409,1236.791870 1621.730957,1239.325684 
	C1593.199463,1267.803345 1564.728638,1296.342041 1536.166748,1324.789307 
	C1483.059082,1377.683838 1429.925049,1430.552124 1376.713501,1483.342041 
	C1373.143433,1486.883789 1371.335205,1490.576538 1371.501221,1495.661743 
	C1371.783569,1504.314453 1371.571655,1512.983154 1371.571533,1521.645142 
	C1371.571045,1568.619995 1371.532471,1615.594849 1371.649170,1662.569336 
	C1371.658203,1666.210938 1370.178833,1670.430542 1374.375854,1674.218384 
	C1413.780396,1635.020752 1452.943115,1596.063477 1493.105713,1556.105713 
z"/>
<path fill="#3EB693" opacity="1.000000" stroke="none" 
	d="
M1848.756470,1941.245117 
	C1854.330200,1946.889893 1859.403076,1952.034546 1864.502197,1957.205688 
	C1822.204102,1994.102173 1724.558350,2037.275391 1628.140015,2039.092651 
	C1539.818359,2040.756958 1458.587402,2019.430420 1382.459839,1971.441284 
	C1402.760010,1948.832520 1424.149292,1929.474976 1444.393433,1909.020874 
	C1464.783081,1888.419556 1485.333374,1867.977051 1505.865845,1847.517578 
	C1526.396606,1827.059814 1546.999268,1806.674194 1567.558472,1786.244995 
	C1588.070557,1765.862671 1608.567871,1745.465454 1630.088989,1724.063232 
	C1703.695312,1796.420532 1775.517334,1869.048462 1848.756470,1941.245117 
z"/>
<path fill="#FDFFFE" opacity="1.000000" stroke="none" 
	d="
M1492.605835,1556.605957 
	C1452.943115,1596.063477 1413.780396,1635.020752 1374.375854,1674.218384 
	C1370.178833,1670.430542 1371.658203,1666.210938 1371.649170,1662.569336 
	C1371.532471,1615.594849 1371.571045,1568.619995 1371.571533,1521.645142 
	C1371.571655,1512.983154 1371.783569,1504.314453 1371.501221,1495.661743 
	C1371.335205,1490.576538 1373.143433,1486.883789 1376.713501,1483.342041 
	C1429.925049,1430.552124 1483.059082,1377.683838 1536.166748,1324.789307 
	C1564.728638,1296.342041 1593.199463,1267.803345 1621.730957,1239.325684 
	C1624.269409,1236.791870 1626.953613,1234.404053 1630.170654,1231.384888 
	C1633.378174,1234.365967 1636.072388,1236.721313 1638.601562,1239.242432 
	C1694.991821,1295.453857 1751.352173,1351.695190 1807.745117,1407.904053 
	C1832.283325,1432.361938 1856.770630,1456.872925 1881.542603,1481.092163 
	C1886.666870,1486.101929 1889.136475,1491.163940 1889.099609,1498.515137 
	C1888.823486,1553.484253 1888.958984,1608.455322 1888.924072,1663.425781 
	C1888.921997,1666.621582 1888.557861,1669.817139 1888.215210,1675.414551 
	C1884.048584,1671.739014 1881.342285,1669.590820 1878.908203,1667.169067 
	C1835.690308,1624.170288 1792.505737,1581.137939 1749.313110,1538.113647 
	C1712.257324,1501.201904 1675.204712,1464.287109 1638.133179,1427.391357 
	C1635.816772,1425.086060 1633.347046,1422.935181 1630.024536,1419.856079 
	C1584.090698,1465.565430 1538.598145,1510.835571 1492.605835,1556.605957 
z"/>
</svg>