<svg id="Thumbnail-Preview--Streamline-Carbon" xmlns="http://www.w3.org/2000/svg" viewBox="0 0 16 16" height="16" width="16">
  <desc>
    Thumbnail Preview Streamline Icon: https://streamlinehq.com
  </desc>
  <defs></defs>
  <title>thumbnail-preview</title>
  <path d="M14 6H2a1.00115 1.00115 0 0 0 -1 1v7a1.001 1.001 0 0 0 1 1h12a1.00115 1.00115 0 0 0 1 -1V7a1.00135 1.00135 0 0 0 -1 -1Zm-4 8h-4v-0.5a0.50045 0.50045 0 0 1 0.5 -0.5h3a0.50045 0.50045 0 0 1 0.5 0.5Zm4 0h-3v-0.5a1.50165 1.50165 0 0 0 -1.5 -1.5h-3a1.50165 1.50165 0 0 0 -1.5 1.5v0.5H2V7h12.001Z" fill="#000000" stroke-width="0.5"></path>
  <path d="M8 11.5a2 2 0 1 1 2 -2 2.0021 2.0021 0 0 1 -2 2Zm0 -3a1 1 0 1 0 1 1 1.00115 1.00115 0 0 0 -1 -1Z" fill="#000000" stroke-width="0.5"></path>
  <path d="M15 2v2a1.00135 1.00135 0 0 1 -1 1h-2a1.00135 1.00135 0 0 1 -1 -1V2a1.00135 1.00135 0 0 1 1 -1h2a1.00135 1.00135 0 0 1 1 1Zm-1 2 0.001 -2H12v2Z" fill="#000000" stroke-width="0.5"></path>
  <path d="M10 2v2a1.00135 1.00135 0 0 1 -1 1h-2a1.00115 1.00115 0 0 1 -1 -1V2a1.00115 1.00115 0 0 1 1 -1h2a1.00135 1.00135 0 0 1 1 1Zm-1 2 0.001 -2H7v2Z" fill="#000000" stroke-width="0.5"></path>
  <path d="M5 2v2a1.00115 1.00115 0 0 1 -1 1H2a1.00115 1.00115 0 0 1 -1 -1V2a1.00115 1.00115 0 0 1 1 -1h2a1.00115 1.00115 0 0 1 1 1ZM4 4l0.00075 -2H2v2Z" fill="#000000" stroke-width="0.5"></path>
  <path id="_Transparent_Rectangle_" d="M0 0h16v16H0Z" fill="none" stroke-width="0.5"></path>
</svg>