<svg role="img" viewBox="0 0 24 24" xmlns="http://www.w3.org/2000/svg" id="Indeed--Streamline-Simple-Icons" height="24" width="24">
  <desc>
    Indeed Streamline Icon: https://streamlinehq.com
  </desc>
  <title>Indeed</title>
  <path d="M11.566 21.5633v-8.762c0.2553 0.0231 0.5009 0.0346 0.758 0.0346 1.2225 0 2.3739 -0.3206 3.3506 -0.8928v9.6182c0 0.8219 -0.1957 1.4287 -0.5757 1.8338 -0.378 0.4033 -0.8808 0.6049 -1.491 0.6049 -0.6007 0 -1.0766 -0.2016 -1.468 -0.6183 -0.3781 -0.4032 -0.5739 -1.01 -0.5739 -1.8184zM11.589 0.5659c2.5447 -0.8929 5.4424 -0.8449 7.6186 0.987 0.405 0.3687 0.8673 0.8334 1.0515 1.3806 0.2207 0.6913 -0.7695 -0.073 -0.9057 -0.167 -0.71 -0.4532 -1.4182 -0.8334 -2.2127 -1.0946C12.8614 0.3873 8.8122 2.709 6.2945 6.315c-1.0516 1.5939 -1.7367 3.2721 -2.299 5.1174 -0.0614 0.2017 -0.1094 0.4647 -0.2207 0.6413 -0.1113 0.2036 -0.048 -0.5453 -0.048 -0.5702 0.0845 -0.7623 0.2438 -1.4997 0.4414 -2.237 1.161 -3.929 3.7288 -7.201 7.4209 -8.7007zm4.9281 7.0587c0 1.6686 -1.353 3.0224 -3.0205 3.0224 -1.6677 0 -3.0186 -1.3538 -3.0186 -3.0224 0 -1.6687 1.351 -3.0224 3.0186 -3.0224 1.6676 0 3.0205 1.3518 3.0205 3.0224Z" fill="#000000" stroke-width="1"></path>
</svg>