<svg role="img" viewBox="0 0 24 24" xmlns="http://www.w3.org/2000/svg" id="Quicklook--Streamline-Simple-Icons" height="24" width="24">
  <desc>
    Quicklook Streamline Icon: https://streamlinehq.com
  </desc>
  <title>QuickLook</title>
  <path d="m22.682 19.189 -0.002 -0.002 -3.07 -3.068a7.027 7.027 0 0 0 1.332 -4.12 7.068 7.068 0 0 0 -7.068 -7.067V1.037A1.04 1.04 0 0 0 12.653 0.016L1.67 1.965a0.832 0.832 0 0 0 -0.687 0.818v18.434c0 0.403 0.29 0.748 0.687 0.818l10.982 1.949a1.04 1.04 0 0 0 1.22 -1.022v-3.894a7.027 7.027 0 0 0 4.12 -1.332l3.069 3.07c0.446 0.446 1.17 0.447 1.617 0h0.001c0.447 -0.447 0.448 -1.17 0.002 -1.617zm-8.808 -0.62a6.576 6.576 0 0 1 -6.569 -6.57 6.576 6.576 0 0 1 6.569 -6.567A6.576 6.576 0 0 1 20.442 12a6.576 6.576 0 0 1 -6.568 6.568zm5.28 -6.57a5.287 5.287 0 0 1 -5.28 5.282c-2.913 0 -5.282 -2.369 -5.282 -5.28s2.37 -5.282 5.282 -5.282a5.287 5.287 0 0 1 5.28 5.28z" fill="#000000" stroke-width="1"></path>
</svg>