<svg id="Portfolio--Streamline-Carbon" xmlns="http://www.w3.org/2000/svg" viewBox="0 0 16 16" height="16" width="16">
  <desc>
    Portfolio Streamline Icon: https://streamlinehq.com
  </desc>
  <defs></defs>
  <title>portfolio</title>
  <path d="M14 5h-3V3a1 1 0 0 0 -1 -1h-4a1 1 0 0 0 -1 1v2H2a1 1 0 0 0 -1 1v7a1 1 0 0 0 1 1h12a1 1 0 0 0 1 -1V6a1 1 0 0 0 -1 -1ZM6 3h4v2h-4ZM2 13V6h12v7Z" fill="#000000" stroke-width="0.5"></path>
  <path id="_Transparent_Rectangle_" d="M0 0h16v16H0Z" fill="none" stroke-width="0.5"></path>
</svg>